<?xml version="1.0" encoding="UTF-8"?>
<svg xmlns="http://www.w3.org/2000/svg" viewBox="0 0 1610.3 254.1" width="1610.3" height="254.1" role="img"><style>
  :root{--sym:#1b1b1f;--panel:#ffffff;--ink:#16181d;--ink-2:#6b7078;--ink-3:#8b909b;--tex:#9aa0ab;--rule:#e2e4e9;--accent:#b4442c;--sans:"IBM Plex Sans","ThermoDraw Sans","Helvetica Neue",Arial,sans-serif}
  @media (prefers-color-scheme:dark){
    :root:not([data-theme="light"]){--sym:#d8d6d1;--panel:#171a1f;--ink:#e9e7e2;--ink-2:#a2a7b2;--ink-3:#727884;--tex:#767c88;--rule:#2a2e36;--accent:#e8996b;--sans:"IBM Plex Sans","ThermoDraw Sans","Helvetica Neue",Arial,sans-serif}}
  :root[data-theme="dark"]{--sym:#d8d6d1;--panel:#171a1f;--ink:#e9e7e2;--ink-2:#a2a7b2;--ink-3:#727884;--tex:#767c88;--rule:#2a2e36;--accent:#e8996b;--sans:"IBM Plex Sans","ThermoDraw Sans","Helvetica Neue",Arial,sans-serif}

.w,.sym-box{stroke:var(--sym);stroke-width:1.8;fill:none;stroke-linecap:round;stroke-linejoin:round}
polyline{fill:none;stroke:var(--sym);stroke-width:1.8;stroke-linecap:round;stroke-linejoin:round}
.node-open{fill:var(--panel);stroke:var(--sym);stroke-width:1.8}
.fillsym{fill:var(--sym);stroke:none}
.tex line,.tex polyline{stroke:var(--tex);stroke-width:1.1;fill:none}
.tex polygon{fill:var(--tex)}
.gapfill{fill:var(--panel);stroke:none}
.region{fill:none;stroke:var(--ink-2);stroke-width:1.4;stroke-dasharray:6 5}
.tick{stroke:var(--rule);stroke-width:1}
text{font-family:var(--sans);fill:var(--ink)}
.lbl{font-size:13px;font-style:italic}
.val{font-size:13px;fill:var(--ink);font-style:normal}
.eq{font-size:13px;fill:var(--ink);font-style:normal}
.user{font-size:11.5px;font-weight:600;font-style:normal;fill:var(--ink)}
.ang{font-size:10px;fill:var(--ink-3);font-style:normal}
.reg-lbl{font-size:11.5px;fill:var(--ink-2);font-style:normal;font-weight:600}
</style><defs><clipPath id="clip-52730f4d"><rect x="-42.0" y="-16.0" width="84" height="32"/></clipPath><clipPath id="clip-b90f596f"><rect x="0" y="-24" width="13" height="48"/></clipPath></defs><g transform="translate(-123.6,-15.3)"><polyline class="w" points="200.0,200.0 338.0,200.0"/><polyline class="w" points="422.0,200.0 560.0,200.0"/><polyline class="w" points="560.0,200.0 698.0,200.0"/><polyline class="w" points="782.0,200.0 920.0,200.0"/><polyline class="w" points="1280.0,200.0 1142.0,200.0"/><polyline class="w" points="1058.0,200.0 920.0,200.0"/><polyline class="w" points="1280.0,200.0 1448.0,200.0"/><polyline class="w" points="1472.0,200.0 1640.0,200.0"/><polyline class="w" points="452.6,102.6 556.1,196.1"/><polyline class="w" points="668.8,101.2 563.9,196.1"/><polyline class="w" points="1280.0,112.0 1280.0,194.5"/><polyline class="w" points="200.0,200.0 200.0,212.0"/><polyline class="w" points="1640.0,200.0 1640.0,212.0"/><g transform="translate(380.00,200.00) rotate(0.00)"><line class="w" x1="-62.0" y1="0" x2="-42.0" y2="0"/><line class="w" x1="42.0" y1="0" x2="62.0" y2="0"/><g class="tex" clip-path="url(#clip-52730f4d)"><g transform="translate(0,0)"><g transform="rotate(45.00)"><line x1="-51.9" y1="-51.9" x2="51.9" y2="-51.9"/><line x1="-51.9" y1="-44.9" x2="51.9" y2="-44.9"/><line x1="-51.9" y1="-37.9" x2="51.9" y2="-37.9"/><line x1="-51.9" y1="-30.9" x2="51.9" y2="-30.9"/><line x1="-51.9" y1="-23.9" x2="51.9" y2="-23.9"/><line x1="-51.9" y1="-16.9" x2="51.9" y2="-16.9"/><line x1="-51.9" y1="-9.9" x2="51.9" y2="-9.9"/><line x1="-51.9" y1="-2.9" x2="51.9" y2="-2.9"/><line x1="-51.9" y1="4.1" x2="51.9" y2="4.1"/><line x1="-51.9" y1="11.1" x2="51.9" y2="11.1"/><line x1="-51.9" y1="18.1" x2="51.9" y2="18.1"/><line x1="-51.9" y1="25.1" x2="51.9" y2="25.1"/><line x1="-51.9" y1="32.1" x2="51.9" y2="32.1"/><line x1="-51.9" y1="39.1" x2="51.9" y2="39.1"/><line x1="-51.9" y1="46.1" x2="51.9" y2="46.1"/></g></g></g><rect class="sym-box" x="-42.0" y="-16.0" width="84" height="32" rx="2"/></g><g transform="translate(740.00,200.00) rotate(0.00)"><line class="w" x1="-62.0" y1="0" x2="-42.0" y2="0"/><line class="w" x1="42.0" y1="0" x2="62.0" y2="0"/><g class="tex" clip-path="url(#clip-52730f4d)"><g transform="translate(0,0)"><g transform="rotate(45.00)"><line x1="-51.9" y1="-51.9" x2="51.9" y2="-51.9"/><line x1="-51.9" y1="-44.9" x2="51.9" y2="-44.9"/><line x1="-51.9" y1="-37.9" x2="51.9" y2="-37.9"/><line x1="-51.9" y1="-30.9" x2="51.9" y2="-30.9"/><line x1="-51.9" y1="-23.9" x2="51.9" y2="-23.9"/><line x1="-51.9" y1="-16.9" x2="51.9" y2="-16.9"/><line x1="-51.9" y1="-9.9" x2="51.9" y2="-9.9"/><line x1="-51.9" y1="-2.9" x2="51.9" y2="-2.9"/><line x1="-51.9" y1="4.1" x2="51.9" y2="4.1"/><line x1="-51.9" y1="11.1" x2="51.9" y2="11.1"/><line x1="-51.9" y1="18.1" x2="51.9" y2="18.1"/><line x1="-51.9" y1="25.1" x2="51.9" y2="25.1"/><line x1="-51.9" y1="32.1" x2="51.9" y2="32.1"/><line x1="-51.9" y1="39.1" x2="51.9" y2="39.1"/><line x1="-51.9" y1="46.1" x2="51.9" y2="46.1"/></g></g></g><rect class="sym-box" x="-42.0" y="-16.0" width="84" height="32" rx="2"/></g><g transform="translate(1100.00,200.00) rotate(180.00)"><line class="w" x1="-62.0" y1="0" x2="-42.0" y2="0"/><line class="w" x1="42.0" y1="0" x2="62.0" y2="0"/><g class="tex" clip-path="url(#clip-52730f4d)"><g transform="translate(0,0)"><g transform="rotate(45.00)"><line x1="-51.9" y1="-51.9" x2="51.9" y2="-51.9"/><line x1="-51.9" y1="-44.9" x2="51.9" y2="-44.9"/><line x1="-51.9" y1="-37.9" x2="51.9" y2="-37.9"/><line x1="-51.9" y1="-30.9" x2="51.9" y2="-30.9"/><line x1="-51.9" y1="-23.9" x2="51.9" y2="-23.9"/><line x1="-51.9" y1="-16.9" x2="51.9" y2="-16.9"/><line x1="-51.9" y1="-9.9" x2="51.9" y2="-9.9"/><line x1="-51.9" y1="-2.9" x2="51.9" y2="-2.9"/><line x1="-51.9" y1="4.1" x2="51.9" y2="4.1"/><line x1="-51.9" y1="11.1" x2="51.9" y2="11.1"/><line x1="-51.9" y1="18.1" x2="51.9" y2="18.1"/><line x1="-51.9" y1="25.1" x2="51.9" y2="25.1"/><line x1="-51.9" y1="32.1" x2="51.9" y2="32.1"/><line x1="-51.9" y1="39.1" x2="51.9" y2="39.1"/><line x1="-51.9" y1="46.1" x2="51.9" y2="46.1"/></g></g></g><rect class="sym-box" x="-42.0" y="-16.0" width="84" height="32" rx="2"/></g><g transform="translate(1460.00,200.00) rotate(0.00)"><line class="w" x1="-40" y1="0" x2="-12" y2="0"/><line class="w" x1="-12" y1="-8" x2="-12" y2="8"/><line class="w" x1="12" y1="-8" x2="12" y2="8"/><line class="w" x1="12" y1="0" x2="40" y2="0"/></g><g transform="translate(430.00,80.00) rotate(45.00)"><polyline points="-32.00,0.00 -31.28,0.87 -30.56,1.71 -29.83,2.50 -29.11,3.21 -28.39,3.83 -27.67,4.33 -26.94,4.70 -26.22,4.92 -25.50,5.00 -24.78,4.92 -24.06,4.70 -23.33,4.33 -22.61,3.83 -21.89,3.21 -21.17,2.50 -20.44,1.71 -19.72,0.87 -19.00,0.00 -18.28,-0.87 -17.56,-1.71 -16.83,-2.50 -16.11,-3.21 -15.39,-3.83 -14.67,-4.33 -13.94,-4.70 -13.22,-4.92 -12.50,-5.00 -11.78,-4.92 -11.06,-4.70 -10.33,-4.33 -9.61,-3.83 -8.89,-3.21 -8.17,-2.50 -7.44,-1.71 -6.72,-0.87 -6.00,-0.00 -5.28,0.87 -4.56,1.71 -3.83,2.50 -3.11,3.17 -2.39,3.66 -1.67,4.01 -0.94,4.21 -0.22,4.26 0.50,4.17 1.22,3.95 1.94,3.63 2.67,3.21 3.39,2.72 4.11,2.18 4.83,1.62 5.56,1.06 6.28,0.51 7.00,0.00 7.72,-0.46 8.44,-0.84 9.17,-1.16 9.89,-1.39 10.61,-1.54 11.33,-1.60 12.06,-1.60 12.78,-1.52 13.50,-1.39 14.22,-1.22 14.94,-1.02 15.67,-0.80 16.39,-0.59 17.11,-0.40 17.83,-0.23 18.56,-0.11 19.28,-0.03 20.00,-0.00"/><polygon class="fillsym" points="20.0,-6.0 32,0.0 20.0,6.0"/></g><g transform="translate(690.00,80.00) rotate(315.00)"><line class="w" x1="-30" y1="0" x2="18" y2="0"/><polygon class="fillsym" points="18.0,-6.5 30,0.0 18.0,6.5"/></g><g transform="translate(1280.00,80.00) rotate(90.00)"><line class="w" x1="-32" y1="0" x2="20" y2="0"/><polygon class="fillsym" points="20.0,-6.5 32,0.0 20.0,6.5"/></g><g transform="translate(200.00,212.00) rotate(90.00)"><line class="w" x1="0" y1="-24" x2="0" y2="24"/><g class="tex" clip-path="url(#clip-b90f596f)"><g transform="translate(6.5,0.0)"><g transform="rotate(45.00)"><line x1="-29.4" y1="-29.4" x2="29.4" y2="-29.4"/><line x1="-29.4" y1="-24.9" x2="29.4" y2="-24.9"/><line x1="-29.4" y1="-20.4" x2="29.4" y2="-20.4"/><line x1="-29.4" y1="-15.9" x2="29.4" y2="-15.9"/><line x1="-29.4" y1="-11.4" x2="29.4" y2="-11.4"/><line x1="-29.4" y1="-6.9" x2="29.4" y2="-6.9"/><line x1="-29.4" y1="-2.4" x2="29.4" y2="-2.4"/><line x1="-29.4" y1="2.1" x2="29.4" y2="2.1"/><line x1="-29.4" y1="6.6" x2="29.4" y2="6.6"/><line x1="-29.4" y1="11.1" x2="29.4" y2="11.1"/><line x1="-29.4" y1="15.6" x2="29.4" y2="15.6"/><line x1="-29.4" y1="20.1" x2="29.4" y2="20.1"/><line x1="-29.4" y1="24.6" x2="29.4" y2="24.6"/><line x1="-29.4" y1="29.1" x2="29.4" y2="29.1"/></g></g></g></g><line class="w" x1="907.0" y1="213" x2="933.0" y2="213"/><line class="w" x1="907.0" y1="219" x2="933.0" y2="219"/><g transform="translate(1640.00,212.00) rotate(90.00)"><line class="w" x1="0" y1="-24" x2="0" y2="24"/><g class="tex" clip-path="url(#clip-b90f596f)"><g transform="translate(6.5,0.0)"><g transform="rotate(45.00)"><line x1="-29.4" y1="-29.4" x2="29.4" y2="-29.4"/><line x1="-29.4" y1="-24.9" x2="29.4" y2="-24.9"/><line x1="-29.4" y1="-20.4" x2="29.4" y2="-20.4"/><line x1="-29.4" y1="-15.9" x2="29.4" y2="-15.9"/><line x1="-29.4" y1="-11.4" x2="29.4" y2="-11.4"/><line x1="-29.4" y1="-6.9" x2="29.4" y2="-6.9"/><line x1="-29.4" y1="-2.4" x2="29.4" y2="-2.4"/><line x1="-29.4" y1="2.1" x2="29.4" y2="2.1"/><line x1="-29.4" y1="6.6" x2="29.4" y2="6.6"/><line x1="-29.4" y1="11.1" x2="29.4" y2="11.1"/><line x1="-29.4" y1="15.6" x2="29.4" y2="15.6"/><line x1="-29.4" y1="20.1" x2="29.4" y2="20.1"/><line x1="-29.4" y1="24.6" x2="29.4" y2="24.6"/><line x1="-29.4" y1="29.1" x2="29.4" y2="29.1"/></g></g></g></g><circle class="node-open" cx="200.0" cy="200.0" r="5.5"/><circle class="node-open" cx="560.0" cy="200.0" r="5.5"/><circle class="node-open" cx="920.0" cy="200.0" r="5.5"/><circle class="node-open" cx="1280.0" cy="200.0" r="5.5"/><circle class="node-open" cx="1640.0" cy="200.0" r="5.5"/><text class="user" x="326.4" y="135.9" text-anchor="start">G-10 support straps</text><text class="lbl" x="334.4" y="152.6" text-anchor="start">R<tspan dy="4" font-size="0.7em">cond</tspan></text><text class="eq" x="368.4" y="152.6" text-anchor="start">=</text><text class="val" x="382.2" y="152.6" text-anchor="start">50 K/W</text><text class="lbl" x="349.5" y="170.0" text-anchor="start">q</text><text class="eq" x="362.9" y="170.0" text-anchor="start">=</text><text class="val" x="376.7" y="170.0" text-anchor="start">5.2 W</text><text class="user" x="680.3" y="153.4" text-anchor="start">Instrumentation leads</text><text class="lbl" x="690.5" y="170.0" text-anchor="start">R<tspan dy="4" font-size="0.7em">cond</tspan></text><text class="eq" x="724.5" y="170.0" text-anchor="start">=</text><text class="val" x="738.3" y="170.0" text-anchor="start">179 K/W</text><text class="user" x="1031.6" y="153.4" text-anchor="start">Winding-to-bath coupling</text><text class="lbl" x="1058.3" y="170.0" text-anchor="start">R<tspan dy="4" font-size="0.7em">cond</tspan></text><text class="eq" x="1092.3" y="170.0" text-anchor="start">=</text><text class="val" x="1106.1" y="170.0" text-anchor="start">6 K/W</text><text class="user" x="1376.2" y="176.8" text-anchor="start">Suspension strut (no heat path)</text><text class="user" x="457.3" y="48.5" text-anchor="start">Multi-layer insulation</text><text class="lbl" x="479.4" y="65.1" text-anchor="start">q<tspan dy="4" font-size="0.7em">mli</tspan></text><text class="eq" x="505.3" y="65.1" text-anchor="start">=</text><text class="val" x="519.1" y="65.1" text-anchor="start">30 W</text><text class="user" x="715.1" y="94.8" text-anchor="start">Cryocooler first stage</text><text class="lbl" x="738.8" y="111.5" text-anchor="start">q<tspan dy="4" font-size="0.7em">cc</tspan></text><text class="eq" x="761.1" y="111.5" text-anchor="start">=</text><text class="val" x="774.9" y="111.5" text-anchor="start">35 W</text><text class="user" x="1323.8" y="72.8" text-anchor="start">Persistent-joint dissipation</text><text class="lbl" x="1360.5" y="89.4" text-anchor="start">P<tspan dy="4" font-size="0.7em">j</tspan></text><text class="eq" x="1376.4" y="89.4" text-anchor="start">=</text><text class="val" x="1390.2" y="89.4" text-anchor="start">0.05 W</text><text class="user" x="147.6" y="147.4" text-anchor="start">Outer vessel (room)</text><text class="lbl" x="158.6" y="164.0" text-anchor="start">T<tspan dy="4" font-size="0.7em">room</tspan></text><text class="eq" x="192.9" y="164.0" text-anchor="start">=</text><text class="val" x="206.7" y="164.0" text-anchor="start">300 K</text><text class="user" x="516.8" y="221.7" text-anchor="start">Radiation shield</text><text class="lbl" x="528.3" y="238.3" text-anchor="start">T<tspan dy="4" font-size="0.7em">sh</tspan></text><text class="eq" x="551.0" y="238.3" text-anchor="start">=</text><text class="val" x="564.8" y="238.3" text-anchor="start">40 K</text><text class="user" x="870.3" y="147.4" text-anchor="start">Liquid helium bath</text><text class="lbl" x="885.8" y="164.0" text-anchor="start">T<tspan dy="4" font-size="0.7em">He</tspan></text><text class="eq" x="909.9" y="164.0" text-anchor="start">=</text><text class="val" x="923.7" y="164.0" text-anchor="start">4.2 K</text><text class="user" x="1237.6" y="221.7" text-anchor="start">Magnet winding</text><text class="lbl" x="1247.9" y="238.3" text-anchor="start">T<tspan dy="4" font-size="0.7em">w</tspan></text><text class="eq" x="1267.9" y="238.3" text-anchor="start">=</text><text class="val" x="1281.7" y="238.3" text-anchor="start">4.5 K</text><text class="user" x="1570.1" y="147.4" text-anchor="start">Room-temperature mount</text><text class="lbl" x="1601.2" y="164.0" text-anchor="start">T<tspan dy="4" font-size="0.7em">mnt</tspan></text><text class="eq" x="1630.3" y="164.0" text-anchor="start">=</text><text class="val" x="1644.1" y="164.0" text-anchor="start">300 K</text></g></svg>