<?xml version="1.0" encoding="UTF-8"?>
<svg xmlns="http://www.w3.org/2000/svg" viewBox="0 0 1343.5 285.8" width="1343.5" height="285.8" role="img"><style>
  :root{--sym:#1b1b1f;--panel:#ffffff;--ink:#16181d;--ink-2:#6b7078;--ink-3:#8b909b;--tex:#9aa0ab;--rule:#e2e4e9;--accent:#b4442c;--sans:"IBM Plex Sans","ThermoDraw Sans","Helvetica Neue",Arial,sans-serif}
  @media (prefers-color-scheme:dark){
    :root:not([data-theme="light"]){--sym:#d8d6d1;--panel:#171a1f;--ink:#e9e7e2;--ink-2:#a2a7b2;--ink-3:#727884;--tex:#767c88;--rule:#2a2e36;--accent:#e8996b;--sans:"IBM Plex Sans","ThermoDraw Sans","Helvetica Neue",Arial,sans-serif}}
  :root[data-theme="dark"]{--sym:#d8d6d1;--panel:#171a1f;--ink:#e9e7e2;--ink-2:#a2a7b2;--ink-3:#727884;--tex:#767c88;--rule:#2a2e36;--accent:#e8996b;--sans:"IBM Plex Sans","ThermoDraw Sans","Helvetica Neue",Arial,sans-serif}

.w,.sym-box{stroke:var(--sym);stroke-width:1.8;fill:none;stroke-linecap:round;stroke-linejoin:round}
polyline{fill:none;stroke:var(--sym);stroke-width:1.8;stroke-linecap:round;stroke-linejoin:round}
.node-open{fill:var(--panel);stroke:var(--sym);stroke-width:1.8}
.fillsym{fill:var(--sym);stroke:none}
.tex line,.tex polyline{stroke:var(--tex);stroke-width:1.1;fill:none}
.tex polygon{fill:var(--tex)}
.gapfill{fill:var(--panel);stroke:none}
.region{fill:none;stroke:var(--ink-2);stroke-width:1.4;stroke-dasharray:6 5}
.tick{stroke:var(--rule);stroke-width:1}
text{font-family:var(--sans);fill:var(--ink)}
.lbl{font-size:13px;font-style:italic}
.val{font-size:13px;fill:var(--ink);font-style:normal}
.eq{font-size:13px;fill:var(--ink);font-style:normal}
.user{font-size:11.5px;font-weight:600;font-style:normal;fill:var(--ink)}
.ang{font-size:10px;fill:var(--ink-3);font-style:normal}
.reg-lbl{font-size:11.5px;fill:var(--ink-2);font-style:normal;font-weight:600}
</style><defs><clipPath id="clip-f6ca5455"><rect x="-42.0" y="-16.0" width="84" height="32"/></clipPath><clipPath id="clip-52730f4d"><rect x="-42.0" y="-16.0" width="84" height="32"/></clipPath><clipPath id="clip-b90f596f"><rect x="0" y="-24" width="13" height="48"/></clipPath></defs><g transform="translate(6.3,-74.2)"><polyline class="w" points="200.0,320.0 298.0,320.0"/><polyline class="w" points="382.0,320.0 480.0,320.0"/><polyline class="w" points="480.0,320.0 560.0,320.0"/><polyline class="w" points="560.0,320.0 560.0,160.0"/><polyline class="w" points="560.0,160.0 618.0,160.0"/><polyline class="w" points="702.0,160.0 760.0,160.0"/><polyline class="w" points="760.0,160.0 838.0,160.0"/><polyline class="w" points="922.0,160.0 1000.0,160.0"/><polyline class="w" points="1000.0,160.0 1098.0,160.0"/><polyline class="w" points="1182.0,160.0 1280.0,160.0"/><polyline class="w" points="92.0,320.0 194.5,320.0"/><polyline class="w" points="1280.0,160.0 1280.0,172.0"/><g transform="translate(340.00,320.00) rotate(0.00)"><line class="w" x1="-62.0" y1="0" x2="-42.0" y2="0"/><line class="w" x1="42.0" y1="0" x2="62.0" y2="0"/><g class="tex" clip-path="url(#clip-f6ca5455)"><line x1="-42.0" y1="0" x2="42.0" y2="-16.0"/><line x1="-42.0" y1="0" x2="42.0" y2="-12.4"/><line x1="-42.0" y1="0" x2="42.0" y2="-8.9"/><line x1="-42.0" y1="0" x2="42.0" y2="-5.3"/><line x1="-42.0" y1="0" x2="42.0" y2="-1.8"/><line x1="-42.0" y1="0" x2="42.0" y2="1.8"/><line x1="-42.0" y1="0" x2="42.0" y2="5.3"/><line x1="-42.0" y1="0" x2="42.0" y2="8.9"/><line x1="-42.0" y1="0" x2="42.0" y2="12.4"/><line x1="-42.0" y1="0" x2="42.0" y2="16.0"/></g><rect class="sym-box" x="-42.0" y="-16.0" width="84" height="32" rx="2"/></g><g transform="translate(660.00,160.00) rotate(0.00)"><line class="w" x1="-62.0" y1="0" x2="-42.0" y2="0"/><line class="w" x1="42.0" y1="0" x2="62.0" y2="0"/><line class="tex" x1="-32.0" y1="-7" x2="21.0" y2="-7"/><g transform="rotate(0)"><polygon class="fillsym" points="21.0,-13.0 32.0,-7 21.0,-1.0"/></g><line class="tex" x1="32.0" y1="7" x2="-21.0" y2="7"/><g transform="rotate(180)"><polygon class="fillsym" points="21.0,-13.0 32.0,-7 21.0,-1.0"/></g><rect class="sym-box" x="-42.0" y="-16.0" width="84" height="32" rx="2"/></g><g transform="translate(880.00,160.00) rotate(0.00)"><line class="w" x1="-62.0" y1="0" x2="-42.0" y2="0"/><line class="w" x1="42.0" y1="0" x2="62.0" y2="0"/><g class="tex" clip-path="url(#clip-52730f4d)"><polyline points="-42.0,-8.0 -38.5,-7.2 -35.0,-6.4 -31.5,-5.7 -28.0,-5.2 -24.5,-4.9 -21.0,-4.8 -17.5,-4.9 -14.0,-5.2 -10.5,-5.7 -7.0,-6.4 -3.5,-7.2 0.0,-8.0 3.5,-8.8 7.0,-9.6 10.5,-10.3 14.0,-10.8 17.5,-11.1 21.0,-11.2 24.5,-11.1 28.0,-10.8 31.5,-10.3 35.0,-9.6 38.5,-8.8 42.0,-8.0"/><polyline points="-42.0,2.7 -38.5,3.0 -35.0,3.2 -31.5,3.1 -28.0,2.8 -24.5,2.4 -21.0,1.7 -17.5,1.0 -14.0,0.2 -10.5,-0.7 -7.0,-1.5 -3.5,-2.2 0.0,-2.7 3.5,-3.0 7.0,-3.2 10.5,-3.1 14.0,-2.8 17.5,-2.4 21.0,-1.7 24.5,-1.0 28.0,-0.2 31.5,0.7 35.0,1.5 38.5,2.2 42.0,2.7"/><polyline points="-42.0,10.9 -38.5,10.5 -35.0,9.9 -31.5,9.1 -28.0,8.3 -24.5,7.5 -21.0,6.7 -17.5,6.0 -14.0,5.4 -10.5,5.0 -7.0,4.8 -3.5,4.8 0.0,5.1 3.5,5.5 7.0,6.1 10.5,6.9 14.0,7.7 17.5,8.5 21.0,9.3 24.5,10.0 28.0,10.6 31.5,11.0 35.0,11.2 38.5,11.2 42.0,10.9"/></g><rect class="sym-box" x="-42.0" y="-16.0" width="84" height="32" rx="2"/></g><g transform="translate(1140.00,160.00) rotate(0.00)"><line class="w" x1="-62.0" y1="0" x2="-42.0" y2="0"/><line class="w" x1="42.0" y1="0" x2="62.0" y2="0"/><rect class="sym-box" x="-42.0" y="-16.0" width="84" height="32" rx="2"/></g><g transform="translate(60.00,320.00) rotate(0.00)"><line class="w" x1="-32" y1="0" x2="20" y2="0"/><polygon class="fillsym" points="20.0,-6.5 32,0.0 20.0,6.5"/></g><g transform="translate(1280.00,172.00) rotate(90.00)"><line class="w" x1="0" y1="-24" x2="0" y2="24"/><g class="tex" clip-path="url(#clip-b90f596f)"><g transform="translate(6.5,0.0)"><g transform="rotate(45.00)"><line x1="-29.4" y1="-29.4" x2="29.4" y2="-29.4"/><line x1="-29.4" y1="-24.9" x2="29.4" y2="-24.9"/><line x1="-29.4" y1="-20.4" x2="29.4" y2="-20.4"/><line x1="-29.4" y1="-15.9" x2="29.4" y2="-15.9"/><line x1="-29.4" y1="-11.4" x2="29.4" y2="-11.4"/><line x1="-29.4" y1="-6.9" x2="29.4" y2="-6.9"/><line x1="-29.4" y1="-2.4" x2="29.4" y2="-2.4"/><line x1="-29.4" y1="2.1" x2="29.4" y2="2.1"/><line x1="-29.4" y1="6.6" x2="29.4" y2="6.6"/><line x1="-29.4" y1="11.1" x2="29.4" y2="11.1"/><line x1="-29.4" y1="15.6" x2="29.4" y2="15.6"/><line x1="-29.4" y1="20.1" x2="29.4" y2="20.1"/><line x1="-29.4" y1="24.6" x2="29.4" y2="24.6"/><line x1="-29.4" y1="29.1" x2="29.4" y2="29.1"/></g></g></g></g><circle class="node-open" cx="200.0" cy="320.0" r="5.5"/><circle class="node-open" cx="480.0" cy="320.0" r="5.5"/><circle class="node-open" cx="760.0" cy="160.0" r="5.5"/><circle class="node-open" cx="1000.0" cy="160.0" r="5.5"/><circle class="node-open" cx="1280.0" cy="160.0" r="5.5"/><text class="user" x="299.3" y="255.9" text-anchor="start">Board to flange</text><text class="lbl" x="284.6" y="272.6" text-anchor="start">R<tspan dy="4" font-size="0.7em">spread</tspan></text><text class="eq" x="326.8" y="272.6" text-anchor="start">=</text><text class="val" x="340.6" y="272.6" text-anchor="start">0.30 K/W</text><text class="lbl" x="311.3" y="290.0" text-anchor="start">q</text><text class="eq" x="324.7" y="290.0" text-anchor="start">=</text><text class="val" x="338.5" y="290.0" text-anchor="start">60 W</text><text class="user" x="615.9" y="113.4" text-anchor="start">Vapour chamber</text><text class="lbl" x="609.9" y="130.0" text-anchor="start">R<tspan dy="4" font-size="0.7em">pipe</tspan></text><text class="eq" x="641.5" y="130.0" text-anchor="start">=</text><text class="val" x="655.3" y="130.0" text-anchor="start">0.02 K/W</text><text class="user" x="845.5" y="113.4" text-anchor="start">Oil-filled gap</text><text class="lbl" x="829.1" y="130.0" text-anchor="start">R<tspan dy="4" font-size="0.7em">conv</tspan></text><text class="eq" x="862.3" y="130.0" text-anchor="start">=</text><text class="val" x="876.1" y="130.0" text-anchor="start">0.08 K/W</text><text class="user" x="1088.2" y="113.4" text-anchor="start">Housing wall to sea</text><text class="lbl" x="1076.5" y="130.0" text-anchor="start">R<tspan dy="4" font-size="0.7em">cond+conv</tspan></text><text class="eq" x="1134.9" y="130.0" text-anchor="start">=</text><text class="val" x="1148.7" y="130.0" text-anchor="start">0.15 K/W</text><text class="user" x="17.7" y="282.4" text-anchor="start">Converter stage</text><text class="lbl" x="28.5" y="299.0" text-anchor="start">P<tspan dy="4" font-size="0.7em">d</tspan></text><text class="eq" x="47.4" y="299.0" text-anchor="start">=</text><text class="val" x="61.2" y="299.0" text-anchor="start">60 W</text><text class="user" x="165.9" y="283.9" text-anchor="start">Power board</text><text class="lbl" x="167.5" y="300.5" text-anchor="start">T<tspan dy="4" font-size="0.7em">b</tspan></text><text class="eq" x="185.9" y="300.5" text-anchor="start">=</text><text class="val" x="199.7" y="300.5" text-anchor="start">37 °C</text><text class="user" x="437.4" y="283.9" text-anchor="start">Spreader flange</text><text class="lbl" x="448.7" y="300.5" text-anchor="start">T<tspan dy="4" font-size="0.7em">f</tspan></text><text class="eq" x="464.7" y="300.5" text-anchor="start">=</text><text class="val" x="478.5" y="300.5" text-anchor="start">19 °C</text><text class="user" x="705.7" y="181.7" text-anchor="start">Vapour chamber top</text><text class="user" x="964.8" y="123.9" text-anchor="start">Housing bore</text><text class="lbl" x="967.5" y="140.5" text-anchor="start">T<tspan dy="4" font-size="0.7em">h</tspan></text><text class="eq" x="985.9" y="140.5" text-anchor="start">=</text><text class="val" x="999.7" y="140.5" text-anchor="start">13 °C</text><text class="user" x="1254.5" y="107.4" text-anchor="start">Seawater</text><text class="lbl" x="1246.8" y="124.0" text-anchor="start">T<tspan dy="4" font-size="0.7em">sea</tspan></text><text class="eq" x="1274.3" y="124.0" text-anchor="start">=</text><text class="val" x="1288.1" y="124.0" text-anchor="start">4 °C</text></g></svg>