<?xml version="1.0" encoding="UTF-8"?>
<svg xmlns="http://www.w3.org/2000/svg" viewBox="0 0 1579.0 498.8" width="1579.0" height="498.8" role="img"><style>
  :root{--sym:#1b1b1f;--panel:#ffffff;--ink:#16181d;--ink-2:#6b7078;--ink-3:#8b909b;--tex:#9aa0ab;--rule:#e2e4e9;--accent:#b4442c;--sans:"IBM Plex Sans","ThermoDraw Sans","Helvetica Neue",Arial,sans-serif}
  @media (prefers-color-scheme:dark){
    :root:not([data-theme="light"]){--sym:#d8d6d1;--panel:#171a1f;--ink:#e9e7e2;--ink-2:#a2a7b2;--ink-3:#727884;--tex:#767c88;--rule:#2a2e36;--accent:#e8996b;--sans:"IBM Plex Sans","ThermoDraw Sans","Helvetica Neue",Arial,sans-serif}}
  :root[data-theme="dark"]{--sym:#d8d6d1;--panel:#171a1f;--ink:#e9e7e2;--ink-2:#a2a7b2;--ink-3:#727884;--tex:#767c88;--rule:#2a2e36;--accent:#e8996b;--sans:"IBM Plex Sans","ThermoDraw Sans","Helvetica Neue",Arial,sans-serif}

.w,.sym-box{stroke:var(--sym);stroke-width:1.8;fill:none;stroke-linecap:round;stroke-linejoin:round}
polyline{fill:none;stroke:var(--sym);stroke-width:1.8;stroke-linecap:round;stroke-linejoin:round}
.node-open{fill:var(--panel);stroke:var(--sym);stroke-width:1.8}
.fillsym{fill:var(--sym);stroke:none}
.tex line,.tex polyline{stroke:var(--tex);stroke-width:1.1;fill:none}
.tex polygon{fill:var(--tex)}
.gapfill{fill:var(--panel);stroke:none}
.region{fill:none;stroke:var(--ink-2);stroke-width:1.4;stroke-dasharray:6 5}
.tick{stroke:var(--rule);stroke-width:1}
text{font-family:var(--sans);fill:var(--ink)}
.lbl{font-size:13px;font-style:italic}
.val{font-size:13px;fill:var(--ink);font-style:normal}
.eq{font-size:13px;fill:var(--ink);font-style:normal}
.user{font-size:11.5px;font-weight:600;font-style:normal;fill:var(--ink)}
.ang{font-size:10px;fill:var(--ink-3);font-style:normal}
.reg-lbl{font-size:11.5px;fill:var(--ink-2);font-style:normal;font-weight:600}
</style><defs><clipPath id="clip-52730f4d"><rect x="-42.0" y="-16.0" width="84" height="32"/></clipPath><clipPath id="clip-d7731dfe"><rect x="-42.0" y="-16.0" width="39.75" height="32"/></clipPath><clipPath id="clip-d6620232"><rect x="2.25" y="-16.0" width="39.75" height="32"/></clipPath><clipPath id="clip-41b059f1"><rect x="-23" y="-24" width="9" height="48"/></clipPath><clipPath id="clip-b90f596f"><rect x="0" y="-24" width="13" height="48"/></clipPath></defs><g transform="translate(16.0,-30.5)"><polyline class="w" points="200.0,150.0 288.0,150.0"/><polyline class="w" points="372.0,150.0 460.0,150.0"/><polyline class="w" points="460.0,150.0 548.0,150.0"/><polyline class="w" points="632.0,150.0 720.0,150.0"/><polyline class="w" points="720.0,150.0 808.0,150.0"/><polyline class="w" points="892.0,150.0 980.0,150.0"/><polyline class="w" points="980.0,150.0 1068.0,150.0"/><polyline class="w" points="1152.0,150.0 1240.0,150.0"/><polyline class="w" points="1240.0,150.0 1328.0,150.0"/><polyline class="w" points="1412.0,150.0 1500.0,150.0"/><polyline class="w" points="1240.0,460.0 1328.0,460.0"/><polyline class="w" points="1412.0,460.0 1500.0,460.0"/><polyline class="w" points="72.0,150.0 194.5,150.0"/><polyline class="w" points="200.0,108.5 200.0,144.5"/><polyline class="w" points="1240.0,330.0 1240.0,454.5"/><polyline class="w" points="1042.0,460.0 1234.5,460.0"/><polyline class="w" points="1500.0,150.0 1500.0,162.0"/><polyline class="w" points="1500.0,460.0 1500.0,472.0"/><g transform="translate(330.00,150.00) rotate(0.00)"><line class="w" x1="-62.0" y1="0" x2="-42.0" y2="0"/><line class="w" x1="42.0" y1="0" x2="62.0" y2="0"/><g class="tex" clip-path="url(#clip-52730f4d)"><g transform="translate(0,0)"><g transform="rotate(45.00)"><line x1="-51.9" y1="-51.9" x2="51.9" y2="-51.9"/><line x1="-51.9" y1="-44.9" x2="51.9" y2="-44.9"/><line x1="-51.9" y1="-37.9" x2="51.9" y2="-37.9"/><line x1="-51.9" y1="-30.9" x2="51.9" y2="-30.9"/><line x1="-51.9" y1="-23.9" x2="51.9" y2="-23.9"/><line x1="-51.9" y1="-16.9" x2="51.9" y2="-16.9"/><line x1="-51.9" y1="-9.9" x2="51.9" y2="-9.9"/><line x1="-51.9" y1="-2.9" x2="51.9" y2="-2.9"/><line x1="-51.9" y1="4.1" x2="51.9" y2="4.1"/><line x1="-51.9" y1="11.1" x2="51.9" y2="11.1"/><line x1="-51.9" y1="18.1" x2="51.9" y2="18.1"/><line x1="-51.9" y1="25.1" x2="51.9" y2="25.1"/><line x1="-51.9" y1="32.1" x2="51.9" y2="32.1"/><line x1="-51.9" y1="39.1" x2="51.9" y2="39.1"/><line x1="-51.9" y1="46.1" x2="51.9" y2="46.1"/></g></g></g><rect class="sym-box" x="-42.0" y="-16.0" width="84" height="32" rx="2"/></g><g transform="translate(590.00,150.00) rotate(0.00)"><line class="w" x1="-62.0" y1="0" x2="-42.0" y2="0"/><line class="w" x1="42.0" y1="0" x2="62.0" y2="0"/><g class="tex" clip-path="url(#clip-d7731dfe)"><g transform="translate(-22.125,0.0)"><g transform="rotate(45.00)"><line x1="-32.5" y1="-32.5" x2="32.5" y2="-32.5"/><line x1="-32.5" y1="-25.5" x2="32.5" y2="-25.5"/><line x1="-32.5" y1="-18.5" x2="32.5" y2="-18.5"/><line x1="-32.5" y1="-11.5" x2="32.5" y2="-11.5"/><line x1="-32.5" y1="-4.5" x2="32.5" y2="-4.5"/><line x1="-32.5" y1="2.5" x2="32.5" y2="2.5"/><line x1="-32.5" y1="9.5" x2="32.5" y2="9.5"/><line x1="-32.5" y1="16.5" x2="32.5" y2="16.5"/><line x1="-32.5" y1="23.5" x2="32.5" y2="23.5"/><line x1="-32.5" y1="30.5" x2="32.5" y2="30.5"/></g></g></g><g class="tex" clip-path="url(#clip-d6620232)"><g transform="translate(22.125,0.0)"><g transform="rotate(-45.00)"><line x1="-32.5" y1="-32.5" x2="32.5" y2="-32.5"/><line x1="-32.5" y1="-25.5" x2="32.5" y2="-25.5"/><line x1="-32.5" y1="-18.5" x2="32.5" y2="-18.5"/><line x1="-32.5" y1="-11.5" x2="32.5" y2="-11.5"/><line x1="-32.5" y1="-4.5" x2="32.5" y2="-4.5"/><line x1="-32.5" y1="2.5" x2="32.5" y2="2.5"/><line x1="-32.5" y1="9.5" x2="32.5" y2="9.5"/><line x1="-32.5" y1="16.5" x2="32.5" y2="16.5"/><line x1="-32.5" y1="23.5" x2="32.5" y2="23.5"/><line x1="-32.5" y1="30.5" x2="32.5" y2="30.5"/></g></g></g><rect class="gapfill" x="-2.25" y="-16.0" width="4.5" height="32"/><line class="w" x1="-2.25" y1="-16.0" x2="-2.25" y2="16.0"/><line class="w" x1="2.25" y1="-16.0" x2="2.25" y2="16.0"/><rect class="sym-box" x="-42.0" y="-16.0" width="84" height="32" rx="2"/></g><g transform="translate(850.00,150.00) rotate(0.00)"><line class="w" x1="-62.0" y1="0" x2="-42.0" y2="0"/><line class="w" x1="42.0" y1="0" x2="62.0" y2="0"/><g class="tex" clip-path="url(#clip-52730f4d)"><g transform="translate(0,0)"><g transform="rotate(45.00)"><line x1="-51.9" y1="-51.9" x2="51.9" y2="-51.9"/><line x1="-51.9" y1="-44.9" x2="51.9" y2="-44.9"/><line x1="-51.9" y1="-37.9" x2="51.9" y2="-37.9"/><line x1="-51.9" y1="-30.9" x2="51.9" y2="-30.9"/><line x1="-51.9" y1="-23.9" x2="51.9" y2="-23.9"/><line x1="-51.9" y1="-16.9" x2="51.9" y2="-16.9"/><line x1="-51.9" y1="-9.9" x2="51.9" y2="-9.9"/><line x1="-51.9" y1="-2.9" x2="51.9" y2="-2.9"/><line x1="-51.9" y1="4.1" x2="51.9" y2="4.1"/><line x1="-51.9" y1="11.1" x2="51.9" y2="11.1"/><line x1="-51.9" y1="18.1" x2="51.9" y2="18.1"/><line x1="-51.9" y1="25.1" x2="51.9" y2="25.1"/><line x1="-51.9" y1="32.1" x2="51.9" y2="32.1"/><line x1="-51.9" y1="39.1" x2="51.9" y2="39.1"/><line x1="-51.9" y1="46.1" x2="51.9" y2="46.1"/></g></g></g><rect class="sym-box" x="-42.0" y="-16.0" width="84" height="32" rx="2"/></g><g transform="translate(1110.00,150.00) rotate(0.00)"><line class="w" x1="-62.0" y1="0" x2="-42.0" y2="0"/><line class="w" x1="42.0" y1="0" x2="62.0" y2="0"/><g class="tex" clip-path="url(#clip-d7731dfe)"><g transform="translate(-22.125,0.0)"><g transform="rotate(45.00)"><line x1="-32.5" y1="-32.5" x2="32.5" y2="-32.5"/><line x1="-32.5" y1="-25.5" x2="32.5" y2="-25.5"/><line x1="-32.5" y1="-18.5" x2="32.5" y2="-18.5"/><line x1="-32.5" y1="-11.5" x2="32.5" y2="-11.5"/><line x1="-32.5" y1="-4.5" x2="32.5" y2="-4.5"/><line x1="-32.5" y1="2.5" x2="32.5" y2="2.5"/><line x1="-32.5" y1="9.5" x2="32.5" y2="9.5"/><line x1="-32.5" y1="16.5" x2="32.5" y2="16.5"/><line x1="-32.5" y1="23.5" x2="32.5" y2="23.5"/><line x1="-32.5" y1="30.5" x2="32.5" y2="30.5"/></g></g></g><g class="tex" clip-path="url(#clip-d6620232)"><g transform="translate(22.125,0.0)"><g transform="rotate(-45.00)"><line x1="-32.5" y1="-32.5" x2="32.5" y2="-32.5"/><line x1="-32.5" y1="-25.5" x2="32.5" y2="-25.5"/><line x1="-32.5" y1="-18.5" x2="32.5" y2="-18.5"/><line x1="-32.5" y1="-11.5" x2="32.5" y2="-11.5"/><line x1="-32.5" y1="-4.5" x2="32.5" y2="-4.5"/><line x1="-32.5" y1="2.5" x2="32.5" y2="2.5"/><line x1="-32.5" y1="9.5" x2="32.5" y2="9.5"/><line x1="-32.5" y1="16.5" x2="32.5" y2="16.5"/><line x1="-32.5" y1="23.5" x2="32.5" y2="23.5"/><line x1="-32.5" y1="30.5" x2="32.5" y2="30.5"/></g></g></g><rect class="gapfill" x="-2.25" y="-16.0" width="4.5" height="32"/><line class="w" x1="-2.25" y1="-16.0" x2="-2.25" y2="16.0"/><line class="w" x1="2.25" y1="-16.0" x2="2.25" y2="16.0"/><rect class="sym-box" x="-42.0" y="-16.0" width="84" height="32" rx="2"/></g><g transform="translate(1370.00,150.00) rotate(0.00)"><line class="w" x1="-62.0" y1="0" x2="-42.0" y2="0"/><line class="w" x1="42.0" y1="0" x2="62.0" y2="0"/><g class="tex" clip-path="url(#clip-52730f4d)"><polyline points="-42.0,-8.0 -38.5,-7.2 -35.0,-6.4 -31.5,-5.7 -28.0,-5.2 -24.5,-4.9 -21.0,-4.8 -17.5,-4.9 -14.0,-5.2 -10.5,-5.7 -7.0,-6.4 -3.5,-7.2 0.0,-8.0 3.5,-8.8 7.0,-9.6 10.5,-10.3 14.0,-10.8 17.5,-11.1 21.0,-11.2 24.5,-11.1 28.0,-10.8 31.5,-10.3 35.0,-9.6 38.5,-8.8 42.0,-8.0"/><polyline points="-42.0,2.7 -38.5,3.0 -35.0,3.2 -31.5,3.1 -28.0,2.8 -24.5,2.4 -21.0,1.7 -17.5,1.0 -14.0,0.2 -10.5,-0.7 -7.0,-1.5 -3.5,-2.2 0.0,-2.7 3.5,-3.0 7.0,-3.2 10.5,-3.1 14.0,-2.8 17.5,-2.4 21.0,-1.7 24.5,-1.0 28.0,-0.2 31.5,0.7 35.0,1.5 38.5,2.2 42.0,2.7"/><polyline points="-42.0,10.9 -38.5,10.5 -35.0,9.9 -31.5,9.1 -28.0,8.3 -24.5,7.5 -21.0,6.7 -17.5,6.0 -14.0,5.4 -10.5,5.0 -7.0,4.8 -3.5,4.8 0.0,5.1 3.5,5.5 7.0,6.1 10.5,6.9 14.0,7.7 17.5,8.5 21.0,9.3 24.5,10.0 28.0,10.6 31.5,11.0 35.0,11.2 38.5,11.2 42.0,10.9"/></g><rect class="sym-box" x="-42.0" y="-16.0" width="84" height="32" rx="2"/></g><g transform="translate(1370.00,460.00) rotate(0.00)"><line class="w" x1="-62.0" y1="0" x2="-42.0" y2="0"/><line class="w" x1="42.0" y1="0" x2="62.0" y2="0"/><g class="tex" clip-path="url(#clip-52730f4d)"><polyline points="-42.0,-8.0 -38.5,-7.2 -35.0,-6.4 -31.5,-5.7 -28.0,-5.2 -24.5,-4.9 -21.0,-4.8 -17.5,-4.9 -14.0,-5.2 -10.5,-5.7 -7.0,-6.4 -3.5,-7.2 0.0,-8.0 3.5,-8.8 7.0,-9.6 10.5,-10.3 14.0,-10.8 17.5,-11.1 21.0,-11.2 24.5,-11.1 28.0,-10.8 31.5,-10.3 35.0,-9.6 38.5,-8.8 42.0,-8.0"/><polyline points="-42.0,2.7 -38.5,3.0 -35.0,3.2 -31.5,3.1 -28.0,2.8 -24.5,2.4 -21.0,1.7 -17.5,1.0 -14.0,0.2 -10.5,-0.7 -7.0,-1.5 -3.5,-2.2 0.0,-2.7 3.5,-3.0 7.0,-3.2 10.5,-3.1 14.0,-2.8 17.5,-2.4 21.0,-1.7 24.5,-1.0 28.0,-0.2 31.5,0.7 35.0,1.5 38.5,2.2 42.0,2.7"/><polyline points="-42.0,10.9 -38.5,10.5 -35.0,9.9 -31.5,9.1 -28.0,8.3 -24.5,7.5 -21.0,6.7 -17.5,6.0 -14.0,5.4 -10.5,5.0 -7.0,4.8 -3.5,4.8 0.0,5.1 3.5,5.5 7.0,6.1 10.5,6.9 14.0,7.7 17.5,8.5 21.0,9.3 24.5,10.0 28.0,10.6 31.5,11.0 35.0,11.2 38.5,11.2 42.0,10.9"/></g><rect class="sym-box" x="-42.0" y="-16.0" width="84" height="32" rx="2"/></g><g transform="translate(40.00,150.00) rotate(0.00)"><line class="w" x1="-32" y1="0" x2="20" y2="0"/><polygon class="fillsym" points="20.0,-6.5 32,0.0 20.0,6.5"/></g><g transform="translate(200.00,82.50) rotate(270.00)"><line class="w" x1="-14" y1="-24" x2="-14" y2="24"/><g class="tex" clip-path="url(#clip-41b059f1)"><g transform="translate(-18.5,0.0)"><g transform="rotate(45.00)"><line x1="-30.9" y1="-30.9" x2="30.9" y2="-30.9"/><line x1="-30.9" y1="-24.4" x2="30.9" y2="-24.4"/><line x1="-30.9" y1="-17.9" x2="30.9" y2="-17.9"/><line x1="-30.9" y1="-11.4" x2="30.9" y2="-11.4"/><line x1="-30.9" y1="-4.9" x2="30.9" y2="-4.9"/><line x1="-30.9" y1="1.6" x2="30.9" y2="1.6"/><line x1="-30.9" y1="8.1" x2="30.9" y2="8.1"/><line x1="-30.9" y1="14.6" x2="30.9" y2="14.6"/><line x1="-30.9" y1="21.1" x2="30.9" y2="21.1"/><line x1="-30.9" y1="27.6" x2="30.9" y2="27.6"/></g></g></g><line class="w" x1="-14" y1="-14" x2="16" y2="-14"/><polygon class="fillsym" points="18,-19.2 28,-14 18,-8.8"/><line class="w" x1="-14" y1="0" x2="16" y2="0"/><polygon class="fillsym" points="18,-5.2 28,0 18,5.2"/><line class="w" x1="-14" y1="14" x2="16" y2="14"/><polygon class="fillsym" points="18,8.8 28,14 18,19.2"/></g><g transform="translate(1240.00,185.50) rotate(90.00)"><line class="w" x1="-30" y1="0" x2="18" y2="0"/><polygon class="fillsym" points="18.0,-6.5 30,0.0 18.0,6.5"/></g><g transform="translate(1240.00,300.00) rotate(90.00)"><line class="w" x1="-30" y1="0" x2="18" y2="0"/><polygon class="fillsym" points="18.0,-6.5 30,0.0 18.0,6.5"/></g><g transform="translate(1010.00,460.00) rotate(0.00)"><line class="w" x1="-32" y1="0" x2="20" y2="0"/><polygon class="fillsym" points="20.0,-6.5 32,0.0 20.0,6.5"/></g><g transform="translate(1500.00,162.00) rotate(90.00)"><line class="w" x1="0" y1="-24" x2="0" y2="24"/><g class="tex" clip-path="url(#clip-b90f596f)"><g transform="translate(6.5,0.0)"><g transform="rotate(45.00)"><line x1="-29.4" y1="-29.4" x2="29.4" y2="-29.4"/><line x1="-29.4" y1="-24.9" x2="29.4" y2="-24.9"/><line x1="-29.4" y1="-20.4" x2="29.4" y2="-20.4"/><line x1="-29.4" y1="-15.9" x2="29.4" y2="-15.9"/><line x1="-29.4" y1="-11.4" x2="29.4" y2="-11.4"/><line x1="-29.4" y1="-6.9" x2="29.4" y2="-6.9"/><line x1="-29.4" y1="-2.4" x2="29.4" y2="-2.4"/><line x1="-29.4" y1="2.1" x2="29.4" y2="2.1"/><line x1="-29.4" y1="6.6" x2="29.4" y2="6.6"/><line x1="-29.4" y1="11.1" x2="29.4" y2="11.1"/><line x1="-29.4" y1="15.6" x2="29.4" y2="15.6"/><line x1="-29.4" y1="20.1" x2="29.4" y2="20.1"/><line x1="-29.4" y1="24.6" x2="29.4" y2="24.6"/><line x1="-29.4" y1="29.1" x2="29.4" y2="29.1"/></g></g></g></g><g transform="translate(1500.00,472.00) rotate(90.00)"><line class="w" x1="0" y1="-24" x2="0" y2="24"/><g class="tex" clip-path="url(#clip-b90f596f)"><g transform="translate(6.5,0.0)"><g transform="rotate(45.00)"><line x1="-29.4" y1="-29.4" x2="29.4" y2="-29.4"/><line x1="-29.4" y1="-24.9" x2="29.4" y2="-24.9"/><line x1="-29.4" y1="-20.4" x2="29.4" y2="-20.4"/><line x1="-29.4" y1="-15.9" x2="29.4" y2="-15.9"/><line x1="-29.4" y1="-11.4" x2="29.4" y2="-11.4"/><line x1="-29.4" y1="-6.9" x2="29.4" y2="-6.9"/><line x1="-29.4" y1="-2.4" x2="29.4" y2="-2.4"/><line x1="-29.4" y1="2.1" x2="29.4" y2="2.1"/><line x1="-29.4" y1="6.6" x2="29.4" y2="6.6"/><line x1="-29.4" y1="11.1" x2="29.4" y2="11.1"/><line x1="-29.4" y1="15.6" x2="29.4" y2="15.6"/><line x1="-29.4" y1="20.1" x2="29.4" y2="20.1"/><line x1="-29.4" y1="24.6" x2="29.4" y2="24.6"/><line x1="-29.4" y1="29.1" x2="29.4" y2="29.1"/></g></g></g></g><circle class="node-open" cx="200.0" cy="150.0" r="5.5"/><circle class="node-open" cx="460.0" cy="150.0" r="5.5"/><circle class="node-open" cx="720.0" cy="150.0" r="5.5"/><circle class="node-open" cx="1240.0" cy="150.0" r="5.5"/><circle class="node-open" cx="1500.0" cy="150.0" r="5.5"/><circle class="node-open" cx="1240.0" cy="460.0" r="5.5"/><circle class="node-open" cx="1500.0" cy="460.0" r="5.5"/><text class="user" x="289.6" y="103.4" text-anchor="start">Semiconductor</text><text class="lbl" x="270.9" y="120.0" text-anchor="start">R<tspan dy="4" font-size="0.7em">cond</tspan></text><text class="eq" x="304.9" y="120.0" text-anchor="start">=</text><text class="val" x="318.7" y="120.0" text-anchor="start">0.0875 K/W</text><text class="user" x="562.6" y="103.4" text-anchor="start">AuSn joint</text><text class="lbl" x="525.8" y="120.0" text-anchor="start">R<tspan dy="4" font-size="0.7em">contact</tspan></text><text class="eq" x="570.0" y="120.0" text-anchor="start">=</text><text class="val" x="583.8" y="120.0" text-anchor="start">0.0125 K/W</text><text class="user" x="802.6" y="103.4" text-anchor="start">Spreading in CuW</text><text class="lbl" x="798.7" y="120.0" text-anchor="start">R<tspan dy="4" font-size="0.7em">cond</tspan></text><text class="eq" x="832.7" y="120.0" text-anchor="start">=</text><text class="val" x="846.5" y="120.0" text-anchor="start">0.15 K/W</text><text class="user" x="1075.9" y="103.4" text-anchor="start">Indium layer</text><text class="lbl" x="1049.7" y="120.0" text-anchor="start">R<tspan dy="4" font-size="0.7em">contact</tspan></text><text class="eq" x="1093.9" y="120.0" text-anchor="start">=</text><text class="val" x="1107.7" y="120.0" text-anchor="start">0.008 K/W</text><text class="user" x="1317.2" y="103.4" text-anchor="start">Microchannel water</text><text class="lbl" x="1315.2" y="120.0" text-anchor="start">R<tspan dy="4" font-size="0.7em">conv</tspan></text><text class="eq" x="1348.4" y="120.0" text-anchor="start">=</text><text class="val" x="1362.2" y="120.0" text-anchor="start">0.045 K/W</text><text class="user" x="1328.0" y="413.4" text-anchor="start">Baseplate to air</text><text class="lbl" x="1319.1" y="430.0" text-anchor="start">R<tspan dy="4" font-size="0.7em">conv</tspan></text><text class="eq" x="1352.3" y="430.0" text-anchor="start">=</text><text class="val" x="1366.1" y="430.0" text-anchor="start">0.23 K/W</text><text class="user" x="9.8" y="112.4" text-anchor="start">Waste heat</text><text class="lbl" x="8.5" y="129.0" text-anchor="start">P<tspan dy="4" font-size="0.7em">d</tspan></text><text class="eq" x="27.4" y="129.0" text-anchor="start">=</text><text class="val" x="41.2" y="129.0" text-anchor="start">80 W</text><text class="user" x="64.8" y="75.3" text-anchor="start">Emitting face</text><text class="lbl" x="48.8" y="91.9" text-anchor="start">q″<tspan dy="4" font-size="0.7em">e</tspan></text><text class="eq" x="72.2" y="91.9" text-anchor="start">=</text><text class="val" x="86.0" y="91.9" text-anchor="start">800 W/cm²</text><text class="user" x="1264.6" y="178.3" text-anchor="start">Pumped by TEC</text><text class="lbl" x="1275.2" y="194.9" text-anchor="start">q<tspan dy="4" font-size="0.7em">p</tspan></text><text class="eq" x="1293.8" y="194.9" text-anchor="start">=</text><text class="val" x="1307.6" y="194.9" text-anchor="start">60 W</text><text class="user" x="1270.6" y="292.8" text-anchor="start">From TEC cold side</text><text class="lbl" x="1290.2" y="309.4" text-anchor="start">q<tspan dy="4" font-size="0.7em">p</tspan></text><text class="eq" x="1308.8" y="309.4" text-anchor="start">=</text><text class="val" x="1322.6" y="309.4" text-anchor="start">60 W</text><text class="user" x="958.5" y="422.4" text-anchor="start">TEC electrical work</text><text class="lbl" x="977.6" y="439.0" text-anchor="start">P<tspan dy="4" font-size="0.7em">el</tspan></text><text class="eq" x="998.3" y="439.0" text-anchor="start">=</text><text class="val" x="1012.1" y="439.0" text-anchor="start">40 W</text><text class="user" x="176.8" y="171.7" text-anchor="start">Junction</text><text class="lbl" x="168.9" y="188.3" text-anchor="start">T<tspan dy="4" font-size="0.7em">j</tspan></text><text class="eq" x="184.5" y="188.3" text-anchor="start">=</text><text class="val" x="198.3" y="188.3" text-anchor="start">65 °C</text><text class="user" x="427.8" y="113.9" text-anchor="start">AuSn solder</text><text class="lbl" x="424.2" y="130.5" text-anchor="start">T<tspan dy="4" font-size="0.7em">sol</tspan></text><text class="eq" x="449.2" y="130.5" text-anchor="start">=</text><text class="val" x="463.0" y="130.5" text-anchor="start">58 °C</text><text class="user" x="679.2" y="113.9" text-anchor="start">CuW submount</text><text class="lbl" x="682.8" y="130.5" text-anchor="start">T<tspan dy="4" font-size="0.7em">sub</tspan></text><text class="eq" x="710.6" y="130.5" text-anchor="start">=</text><text class="val" x="724.4" y="130.5" text-anchor="start">51 °C</text><text class="user" x="1208.2" y="113.9" text-anchor="start">Cooler body</text><text class="lbl" x="1201.6" y="130.5" text-anchor="start">T<tspan dy="4" font-size="0.7em">cool</tspan></text><text class="eq" x="1231.7" y="130.5" text-anchor="start">=</text><text class="val" x="1245.5" y="130.5" text-anchor="start">41 °C</text><text class="user" x="1462.5" y="97.4" text-anchor="start">Coolant water</text><text class="lbl" x="1466.7" y="114.0" text-anchor="start">T<tspan dy="4" font-size="0.7em">w</tspan></text><text class="eq" x="1486.7" y="114.0" text-anchor="start">=</text><text class="val" x="1500.5" y="114.0" text-anchor="start">18 °C</text><text class="user" x="1206.7" y="481.7" text-anchor="start">TEC hot face</text><text class="lbl" x="1203.5" y="498.3" text-anchor="start">T<tspan dy="4" font-size="0.7em">hot</tspan></text><text class="eq" x="1229.8" y="498.3" text-anchor="start">=</text><text class="val" x="1243.6" y="498.3" text-anchor="start">48 °C</text><text class="user" x="1468.8" y="407.4" text-anchor="start">Ambient air</text><text class="lbl" x="1461.0" y="424.0" text-anchor="start">T<tspan dy="4" font-size="0.7em">amb</tspan></text><text class="eq" x="1492.4" y="424.0" text-anchor="start">=</text><text class="val" x="1506.2" y="424.0" text-anchor="start">25 °C</text></g></svg>