<?xml version="1.0" encoding="UTF-8"?>
<svg xmlns="http://www.w3.org/2000/svg" viewBox="0 0 1465.7 343.2" width="1465.7" height="343.2" role="img"><style>
  :root{--sym:#1b1b1f;--panel:#ffffff;--ink:#16181d;--ink-2:#6b7078;--ink-3:#8b909b;--tex:#9aa0ab;--rule:#e2e4e9;--accent:#b4442c;--sans:"IBM Plex Sans","ThermoDraw Sans","Helvetica Neue",Arial,sans-serif}
  @media (prefers-color-scheme:dark){
    :root:not([data-theme="light"]){--sym:#d8d6d1;--panel:#171a1f;--ink:#e9e7e2;--ink-2:#a2a7b2;--ink-3:#727884;--tex:#767c88;--rule:#2a2e36;--accent:#e8996b;--sans:"IBM Plex Sans","ThermoDraw Sans","Helvetica Neue",Arial,sans-serif}}
  :root[data-theme="dark"]{--sym:#d8d6d1;--panel:#171a1f;--ink:#e9e7e2;--ink-2:#a2a7b2;--ink-3:#727884;--tex:#767c88;--rule:#2a2e36;--accent:#e8996b;--sans:"IBM Plex Sans","ThermoDraw Sans","Helvetica Neue",Arial,sans-serif}

.w,.sym-box{stroke:var(--sym);stroke-width:1.8;fill:none;stroke-linecap:round;stroke-linejoin:round}
polyline{fill:none;stroke:var(--sym);stroke-width:1.8;stroke-linecap:round;stroke-linejoin:round}
.node-open{fill:var(--panel);stroke:var(--sym);stroke-width:1.8}
.fillsym{fill:var(--sym);stroke:none}
.tex line,.tex polyline{stroke:var(--tex);stroke-width:1.1;fill:none}
.tex polygon{fill:var(--tex)}
.gapfill{fill:var(--panel);stroke:none}
.region{fill:none;stroke:var(--ink-2);stroke-width:1.4;stroke-dasharray:6 5}
.tick{stroke:var(--rule);stroke-width:1}
text{font-family:var(--sans);fill:var(--ink)}
.lbl{font-size:13px;font-style:italic}
.val{font-size:13px;fill:var(--ink);font-style:normal}
.eq{font-size:13px;fill:var(--ink);font-style:normal}
.user{font-size:11.5px;font-weight:600;font-style:normal;fill:var(--ink)}
.ang{font-size:10px;fill:var(--ink-3);font-style:normal}
.reg-lbl{font-size:11.5px;fill:var(--ink-2);font-style:normal;font-weight:600}
</style><defs><clipPath id="clip-52730f4d"><rect x="-42.0" y="-16.0" width="84" height="32"/></clipPath><clipPath id="clip-d7731dfe"><rect x="-42.0" y="-16.0" width="39.75" height="32"/></clipPath><clipPath id="clip-d6620232"><rect x="2.25" y="-16.0" width="39.75" height="32"/></clipPath><clipPath id="clip-b90f596f"><rect x="0" y="-24" width="13" height="48"/></clipPath></defs><g transform="translate(-15.0,-52.8)"><polyline class="w" points="220.0,150.0 328.0,150.0"/><polyline class="w" points="412.0,150.0 520.0,150.0"/><polyline class="w" points="520.0,150.0 628.0,150.0"/><polyline class="w" points="712.0,150.0 820.0,150.0"/><polyline class="w" points="820.0,150.0 928.0,150.0"/><polyline class="w" points="1012.0,150.0 1120.0,150.0"/><polyline class="w" points="1120.0,150.0 1248.0,150.0"/><polyline class="w" points="1292.0,150.0 1420.0,150.0"/><polyline class="w" points="220.0,150.0 220.0,246.0"/><polyline class="w" points="220.0,276.0 220.0,372.0"/><polyline class="w" points="820.0,150.0 820.0,246.0"/><polyline class="w" points="820.0,276.0 820.0,372.0"/><polyline class="w" points="220.0,372.0 1420.0,372.0"/><polyline class="w" points="112.0,150.0 214.5,150.0"/><polyline class="w" points="1420.0,150.0 1420.0,162.0"/><g transform="translate(370.00,150.00) rotate(0.00)"><line class="w" x1="-62.0" y1="0" x2="-42.0" y2="0"/><line class="w" x1="42.0" y1="0" x2="62.0" y2="0"/><g class="tex" clip-path="url(#clip-52730f4d)"><g transform="translate(0,0)"><g transform="rotate(45.00)"><line x1="-51.9" y1="-51.9" x2="51.9" y2="-51.9"/><line x1="-51.9" y1="-44.9" x2="51.9" y2="-44.9"/><line x1="-51.9" y1="-37.9" x2="51.9" y2="-37.9"/><line x1="-51.9" y1="-30.9" x2="51.9" y2="-30.9"/><line x1="-51.9" y1="-23.9" x2="51.9" y2="-23.9"/><line x1="-51.9" y1="-16.9" x2="51.9" y2="-16.9"/><line x1="-51.9" y1="-9.9" x2="51.9" y2="-9.9"/><line x1="-51.9" y1="-2.9" x2="51.9" y2="-2.9"/><line x1="-51.9" y1="4.1" x2="51.9" y2="4.1"/><line x1="-51.9" y1="11.1" x2="51.9" y2="11.1"/><line x1="-51.9" y1="18.1" x2="51.9" y2="18.1"/><line x1="-51.9" y1="25.1" x2="51.9" y2="25.1"/><line x1="-51.9" y1="32.1" x2="51.9" y2="32.1"/><line x1="-51.9" y1="39.1" x2="51.9" y2="39.1"/><line x1="-51.9" y1="46.1" x2="51.9" y2="46.1"/></g></g></g><rect class="sym-box" x="-42.0" y="-16.0" width="84" height="32" rx="2"/></g><g transform="translate(670.00,150.00) rotate(0.00)"><line class="w" x1="-62.0" y1="0" x2="-42.0" y2="0"/><line class="w" x1="42.0" y1="0" x2="62.0" y2="0"/><g class="tex" clip-path="url(#clip-d7731dfe)"><g transform="translate(-22.125,0.0)"><g transform="rotate(45.00)"><line x1="-32.5" y1="-32.5" x2="32.5" y2="-32.5"/><line x1="-32.5" y1="-25.5" x2="32.5" y2="-25.5"/><line x1="-32.5" y1="-18.5" x2="32.5" y2="-18.5"/><line x1="-32.5" y1="-11.5" x2="32.5" y2="-11.5"/><line x1="-32.5" y1="-4.5" x2="32.5" y2="-4.5"/><line x1="-32.5" y1="2.5" x2="32.5" y2="2.5"/><line x1="-32.5" y1="9.5" x2="32.5" y2="9.5"/><line x1="-32.5" y1="16.5" x2="32.5" y2="16.5"/><line x1="-32.5" y1="23.5" x2="32.5" y2="23.5"/><line x1="-32.5" y1="30.5" x2="32.5" y2="30.5"/></g></g></g><g class="tex" clip-path="url(#clip-d6620232)"><g transform="translate(22.125,0.0)"><g transform="rotate(-45.00)"><line x1="-32.5" y1="-32.5" x2="32.5" y2="-32.5"/><line x1="-32.5" y1="-25.5" x2="32.5" y2="-25.5"/><line x1="-32.5" y1="-18.5" x2="32.5" y2="-18.5"/><line x1="-32.5" y1="-11.5" x2="32.5" y2="-11.5"/><line x1="-32.5" y1="-4.5" x2="32.5" y2="-4.5"/><line x1="-32.5" y1="2.5" x2="32.5" y2="2.5"/><line x1="-32.5" y1="9.5" x2="32.5" y2="9.5"/><line x1="-32.5" y1="16.5" x2="32.5" y2="16.5"/><line x1="-32.5" y1="23.5" x2="32.5" y2="23.5"/><line x1="-32.5" y1="30.5" x2="32.5" y2="30.5"/></g></g></g><rect class="gapfill" x="-2.25" y="-16.0" width="4.5" height="32"/><line class="w" x1="-2.25" y1="-16.0" x2="-2.25" y2="16.0"/><line class="w" x1="2.25" y1="-16.0" x2="2.25" y2="16.0"/><rect class="sym-box" x="-42.0" y="-16.0" width="84" height="32" rx="2"/></g><g transform="translate(970.00,150.00) rotate(0.00)"><line class="w" x1="-62.0" y1="0" x2="-42.0" y2="0"/><line class="w" x1="42.0" y1="0" x2="62.0" y2="0"/><g class="tex" clip-path="url(#clip-52730f4d)"><polyline points="-42.0,-8.0 -38.5,-7.2 -35.0,-6.4 -31.5,-5.7 -28.0,-5.2 -24.5,-4.9 -21.0,-4.8 -17.5,-4.9 -14.0,-5.2 -10.5,-5.7 -7.0,-6.4 -3.5,-7.2 0.0,-8.0 3.5,-8.8 7.0,-9.6 10.5,-10.3 14.0,-10.8 17.5,-11.1 21.0,-11.2 24.5,-11.1 28.0,-10.8 31.5,-10.3 35.0,-9.6 38.5,-8.8 42.0,-8.0"/><polyline points="-42.0,2.7 -38.5,3.0 -35.0,3.2 -31.5,3.1 -28.0,2.8 -24.5,2.4 -21.0,1.7 -17.5,1.0 -14.0,0.2 -10.5,-0.7 -7.0,-1.5 -3.5,-2.2 0.0,-2.7 3.5,-3.0 7.0,-3.2 10.5,-3.1 14.0,-2.8 17.5,-2.4 21.0,-1.7 24.5,-1.0 28.0,-0.2 31.5,0.7 35.0,1.5 38.5,2.2 42.0,2.7"/><polyline points="-42.0,10.9 -38.5,10.5 -35.0,9.9 -31.5,9.1 -28.0,8.3 -24.5,7.5 -21.0,6.7 -17.5,6.0 -14.0,5.4 -10.5,5.0 -7.0,4.8 -3.5,4.8 0.0,5.1 3.5,5.5 7.0,6.1 10.5,6.9 14.0,7.7 17.5,8.5 21.0,9.3 24.5,10.0 28.0,10.6 31.5,11.0 35.0,11.2 38.5,11.2 42.0,10.9"/></g><rect class="sym-box" x="-42.0" y="-16.0" width="84" height="32" rx="2"/></g><g transform="translate(1270.00,150.00) rotate(0.00)"><line class="w" x1="-40" y1="0" x2="40" y2="0"/><polyline class="w" fill="none" points="-13,-10 -2,0 -13,10"/><polyline class="w" fill="none" points="-1,-10 10,0 -1,10"/></g><g transform="translate(220.00,261.00) rotate(90.00)"><line class="w" x1="-40" y1="0" x2="-6" y2="0"/><line class="w" x1="-6" y1="-15" x2="-6" y2="15"/><line class="w" x1="6" y1="-15" x2="6" y2="15"/><line class="w" x1="6" y1="0" x2="40" y2="0"/></g><g transform="translate(820.00,261.00) rotate(90.00)"><line class="w" x1="-40" y1="0" x2="-6" y2="0"/><line class="w" x1="-6" y1="-15" x2="-6" y2="15"/><line class="w" x1="6" y1="-15" x2="6" y2="15"/><line class="w" x1="6" y1="0" x2="40" y2="0"/></g><g transform="translate(80.00,150.00) rotate(0.00)"><line class="w" x1="-32" y1="0" x2="20" y2="0"/><polygon class="fillsym" points="20.0,-6.5 32,0.0 20.0,6.5"/></g><g transform="translate(1420.00,162.00) rotate(90.00)"><line class="w" x1="0" y1="-24" x2="0" y2="24"/><g class="tex" clip-path="url(#clip-b90f596f)"><g transform="translate(6.5,0.0)"><g transform="rotate(45.00)"><line x1="-29.4" y1="-29.4" x2="29.4" y2="-29.4"/><line x1="-29.4" y1="-24.9" x2="29.4" y2="-24.9"/><line x1="-29.4" y1="-20.4" x2="29.4" y2="-20.4"/><line x1="-29.4" y1="-15.9" x2="29.4" y2="-15.9"/><line x1="-29.4" y1="-11.4" x2="29.4" y2="-11.4"/><line x1="-29.4" y1="-6.9" x2="29.4" y2="-6.9"/><line x1="-29.4" y1="-2.4" x2="29.4" y2="-2.4"/><line x1="-29.4" y1="2.1" x2="29.4" y2="2.1"/><line x1="-29.4" y1="6.6" x2="29.4" y2="6.6"/><line x1="-29.4" y1="11.1" x2="29.4" y2="11.1"/><line x1="-29.4" y1="15.6" x2="29.4" y2="15.6"/><line x1="-29.4" y1="20.1" x2="29.4" y2="20.1"/><line x1="-29.4" y1="24.6" x2="29.4" y2="24.6"/><line x1="-29.4" y1="29.1" x2="29.4" y2="29.1"/></g></g></g></g><circle class="node-open" cx="220.0" cy="150.0" r="5.5"/><circle class="node-open" cx="520.0" cy="150.0" r="5.5"/><circle class="node-open" cx="820.0" cy="150.0" r="5.5"/><circle class="node-open" cx="1120.0" cy="150.0" r="5.5"/><circle class="node-open" cx="1420.0" cy="150.0" r="5.5"/><text class="user" x="315.6" y="86.0" text-anchor="start">Jelly roll to can floor</text><text class="lbl" x="318.7" y="102.6" text-anchor="start">R<tspan dy="4" font-size="0.7em">cond</tspan></text><text class="eq" x="352.7" y="102.6" text-anchor="start">=</text><text class="val" x="366.5" y="102.6" text-anchor="start">0.24 K/W</text><text class="lbl" x="337.4" y="120.0" text-anchor="start">q</text><text class="eq" x="350.8" y="120.0" text-anchor="start">=</text><text class="val" x="364.6" y="120.0" text-anchor="start">200 W</text><text class="user" x="636.3" y="103.4" text-anchor="start">Thermal pad</text><text class="lbl" x="613.6" y="120.0" text-anchor="start">R<tspan dy="4" font-size="0.7em">contact</tspan></text><text class="eq" x="657.8" y="120.0" text-anchor="start">=</text><text class="val" x="671.6" y="120.0" text-anchor="start">0.10 K/W</text><text class="user" x="913.1" y="103.4" text-anchor="start">Milled microchannels</text><text class="lbl" x="919.1" y="120.0" text-anchor="start">R<tspan dy="4" font-size="0.7em">conv</tspan></text><text class="eq" x="952.3" y="120.0" text-anchor="start">=</text><text class="val" x="966.1" y="120.0" text-anchor="start">0.05 K/W</text><text class="user" x="1217.7" y="109.4" text-anchor="start">Pumped glycol loop</text><text class="lbl" x="1228.5" y="126.0" text-anchor="start">q<tspan dy="4" font-size="0.7em">loop</tspan></text><text class="eq" x="1259.6" y="126.0" text-anchor="start">=</text><text class="val" x="1273.4" y="126.0" text-anchor="start">200 W</text><text class="user" x="295.4" y="253.8" text-anchor="start">Cells</text><text class="lbl" x="258.6" y="270.4" text-anchor="start">C<tspan dy="4" font-size="0.7em">cells</tspan></text><text class="eq" x="290.6" y="270.4" text-anchor="start">=</text><text class="val" x="304.4" y="270.4" text-anchor="start">4200 J/K</text><text class="user" x="873.6" y="253.8" text-anchor="start">Cold plate</text><text class="lbl" x="855.0" y="270.4" text-anchor="start">C<tspan dy="4" font-size="0.7em">cp</tspan></text><text class="eq" x="878.5" y="270.4" text-anchor="start">=</text><text class="val" x="892.3" y="270.4" text-anchor="start">1800 J/K</text><text class="user" x="39.0" y="95.0" text-anchor="start">Cell dissipation</text><text class="lbl" x="44.2" y="111.6" text-anchor="start">P<tspan dy="4" font-size="0.7em">cell</tspan></text><text class="eq" x="71.7" y="111.6" text-anchor="start">=</text><text class="val" x="85.5" y="111.6" text-anchor="start">25 W</text><text class="val" x="53.3" y="129.0" text-anchor="start">each of 8</text><text class="user" x="196.7" y="113.9" text-anchor="start">Cell core</text><text class="lbl" x="177.5" y="130.5" text-anchor="start">T<tspan dy="4" font-size="0.7em">core</tspan></text><text class="eq" x="208.1" y="130.5" text-anchor="start">=</text><text class="val" x="221.9" y="130.5" text-anchor="start">108 °C</text><text class="user" x="495.9" y="113.9" text-anchor="start">Can floor</text><text class="lbl" x="482.6" y="130.5" text-anchor="start">T<tspan dy="4" font-size="0.7em">can</tspan></text><text class="eq" x="510.8" y="130.5" text-anchor="start">=</text><text class="val" x="524.6" y="130.5" text-anchor="start">60 °C</text><text class="user" x="780.2" y="113.9" text-anchor="start">Cold plate wall</text><text class="lbl" x="785.2" y="130.5" text-anchor="start">T<tspan dy="4" font-size="0.7em">cp</tspan></text><text class="eq" x="808.1" y="130.5" text-anchor="start">=</text><text class="val" x="821.9" y="130.5" text-anchor="start">40 °C</text><text class="user" x="1087.6" y="113.9" text-anchor="start">Coolant film</text><text class="lbl" x="1082.4" y="130.5" text-anchor="start">T<tspan dy="4" font-size="0.7em">film</tspan></text><text class="eq" x="1111.0" y="130.5" text-anchor="start">=</text><text class="val" x="1124.8" y="130.5" text-anchor="start">30 °C</text><text class="user" x="1383.3" y="97.4" text-anchor="start">Chiller supply</text><text class="lbl" x="1385.7" y="114.0" text-anchor="start">T<tspan dy="4" font-size="0.7em">cs</tspan></text><text class="eq" x="1407.7" y="114.0" text-anchor="start">=</text><text class="val" x="1421.5" y="114.0" text-anchor="start">25 °C</text></g></svg>